<?xml version="1.0" encoding="UTF-8"?>
<svg version="1.1" xmlns="http://www.w3.org/2000/svg" width="512" height="512">
<path d="M0 0 C0.78947021 0.00054382 1.57894043 0.00108765 2.39233398 0.00164795 C15.79752181 0.04394094 28.58181608 1.08730699 41.625 4.375 C42.48432129 4.58930664 43.34364258 4.80361328 44.22900391 5.02441406 C71.90919405 12.15864427 97.56410192 25.88444791 118.48828125 45.390625 C120.38064419 47.14806627 122.31755249 48.79926496 124.3125 50.4375 C128.17470602 53.74412186 131.40213967 57.45124578 134.625 61.375 C135.0379834 61.87563965 135.4509668 62.3762793 135.87646484 62.89208984 C142.51840323 70.99032053 148.43838905 79.24945191 153.625 88.375 C153.98835449 89.00744629 154.35170898 89.63989258 154.72607422 90.29150391 C164.614668 107.64398296 170.79799579 125.7921763 174.625 145.375 C174.81191406 146.30965088 174.99882812 147.24430176 175.19140625 148.20727539 C176.96041863 158.13822659 177.02275413 168.00770329 177 178.0625 C176.99918427 179.41852325 176.99918427 179.41852325 176.99835205 180.80194092 C176.95646369 195.98798049 175.9308543 210.5049887 172.625 225.375 C172.31151611 226.80537598 172.31151611 226.80537598 171.99169922 228.26464844 C166.8225256 251.13291763 158.82851627 273.28834948 148.625 294.375 C148.2861377 295.0777002 147.94727539 295.78040039 147.59814453 296.50439453 C145.65711121 300.50487463 143.66262729 304.47489902 141.62548828 308.42724609 C140.62275018 310.37937995 139.63748293 312.33971887 138.65234375 314.30078125 C128.43200244 334.38157557 115.8117704 353.14234637 102.625 371.375 C102.02236328 372.20966797 101.41972656 373.04433594 100.79882812 373.90429688 C94.00063609 383.29227636 87.0783687 392.49589222 79.625 401.375 C78.18601857 403.14462973 76.74856286 404.91550101 75.3125 406.6875 C66.5438027 417.38288338 57.48005065 427.72617734 47.9921875 437.7890625 C45.01489488 440.94771305 42.09742105 444.15422685 39.1875 447.375 C30.70021123 456.65326391 21.92157825 465.95921875 12.24609375 474.01171875 C10.6004455 475.35712863 10.6004455 475.35712863 9.09765625 476.89453125 C6.34191797 479.54793443 4.53854032 480.39173413 0.75 481.125 C-4.77138148 480.68991928 -7.62139713 477.11659134 -11.375 473.375 C-12.48665208 472.34048435 -13.6029283 471.31092537 -14.72265625 470.28515625 C-25.352756 460.5330795 -36.08802117 450.64748004 -45.4140625 439.6171875 C-47.67721051 437.02944456 -50.02816806 434.53634099 -52.38745117 432.03637695 C-57.87661737 426.21911274 -63.18656781 420.35287447 -68.1796875 414.09765625 C-70.1750892 411.62293208 -72.22547623 409.20574099 -74.30151367 406.79858398 C-81.05715536 398.9457604 -87.25326308 390.72701796 -93.375 382.375 C-93.89320313 381.67246094 -94.41140625 380.96992188 -94.9453125 380.24609375 C-108.43470052 361.93906715 -121.021493 343.08311694 -132.375 323.375 C-132.86709961 322.52389648 -133.35919922 321.67279297 -133.86621094 320.79589844 C-150.94985106 291.01901366 -164.01599985 258.95292052 -171.375 225.375 C-171.58527832 224.42915039 -171.79555664 223.48330078 -172.01220703 222.50878906 C-175.1238941 207.8397591 -175.76138866 193.37791975 -175.8125 178.4375 C-175.81876404 177.58198547 -175.82502808 176.72647095 -175.83148193 175.84503174 C-175.90806958 159.31916297 -174.04069392 143.30130326 -169.25 127.4375 C-168.952146 126.43734863 -168.65429199 125.43719727 -168.34741211 124.40673828 C-160.70511107 99.68429582 -147.74986342 76.84752991 -129.91796875 58.09375 C-128.11903076 56.17046145 -126.42993599 54.26183796 -124.765625 52.23046875 C-121.61978879 48.47294216 -118.14928847 45.4846339 -114.375 42.375 C-113.87291016 41.96056641 -113.37082031 41.54613281 -112.85351562 41.11914062 C-104.75684906 34.47891586 -96.49848663 28.56043929 -87.375 23.375 C-86.74255371 23.01164551 -86.11010742 22.64829102 -85.45849609 22.27392578 C-59.23740995 7.33141132 -30.13716622 -0.07839147 0 0 Z " fill="#FC9600" transform="translate(255.375,15.625)"/>
<path d="M0 0 C2.48327467 2.2173627 4.76263516 4.5382576 7 7 C7.78375 7.763125 8.5675 8.52625 9.375 9.3125 C10.24125 10.199375 11.1075 11.08625 12 12 C12.64582031 12.6496875 13.29164063 13.299375 13.95703125 13.96875 C37.70995879 38.92804339 46.63901002 72.35800207 46 106 C45.98324219 107.18980469 45.96648437 108.37960938 45.94921875 109.60546875 C44.56893525 143.2449495 25.98453607 173.91092688 1.89941406 196.30322266 C-24.70819575 220.07223142 -58.18536084 228.08760158 -93 227 C-120.47718393 225.4297144 -144.93066228 212.99687513 -166 196 C-166.70253906 195.44183594 -167.40507812 194.88367188 -168.12890625 194.30859375 C-191.70694823 174.95033557 -206.32494964 142.77421444 -209.6875 112.9375 C-210.7033567 98.28322671 -210.4241239 84.30954836 -207 70 C-206.75636719 68.81792969 -206.51273438 67.63585937 -206.26171875 66.41796875 C-198.95629409 34.46106374 -176.99415629 7.21511793 -149.6796875 -10.10546875 C-101.57713085 -38.43009493 -44.13470534 -34.47503398 0 0 Z " fill="#ECECEC" transform="translate(338,93)"/>
<path d="M0 0 C1.04465927 -0.00945648 2.08931854 -0.01891296 3.16563416 -0.02865601 C4.28861404 -0.02258331 5.41159393 -0.01651062 6.56860352 -0.01025391 C7.72747574 -0.01312408 8.88634796 -0.01599426 10.08033752 -0.01895142 C12.5306141 -0.0209925 14.98090695 -0.01545963 17.43115234 -0.00292969 C21.17981483 0.01310789 24.9273967 -0.00277038 28.67602539 -0.02197266 C31.05688714 -0.01998995 33.43774823 -0.01614571 35.81860352 -0.01025391 C36.93955917 -0.0163266 38.06051483 -0.02239929 39.21543884 -0.02865601 C40.26325027 -0.01919952 41.31106171 -0.00974304 42.390625 0 C43.76818214 0.00358017 43.76818214 0.00358017 45.17356873 0.00723267 C48.32310346 0.47112036 50.20428404 1.51338085 52.76000977 3.38818359 C54.01782227 6.10302734 54.01782227 6.10302734 54.88500977 9.32568359 C55.20211914 10.47810547 55.51922852 11.63052734 55.84594727 12.81787109 C56.14758789 13.99607422 56.44922852 15.17427734 56.76000977 16.38818359 C57.06165039 17.50451172 57.36329102 18.62083984 57.67407227 19.77099609 C58.82219194 24.13814289 59.76000977 27.85035762 59.76000977 32.38818359 C60.92016602 32.33597656 60.92016602 32.33597656 62.10375977 32.28271484 C70.82059996 32.0561633 77.74671725 32.74031533 84.41625977 38.86108398 C90.68877596 45.98946131 93.87617505 56.272245 97.54589844 64.91088867 C98.58152356 67.34688585 99.6262947 69.77881587 100.67211914 72.21044922 C101.33346629 73.75774463 101.99429297 75.30526262 102.65454102 76.85302734 C103.12317314 77.94356667 103.12317314 77.94356667 103.60127258 79.05613708 C105.76000977 84.15742794 105.76000977 84.15742794 105.76000977 86.38818359 C106.72422852 86.02724609 107.68844727 85.66630859 108.68188477 85.29443359 C109.95780245 84.82534621 111.23385106 84.35661486 112.51000977 83.88818359 C113.46133789 83.53046875 113.46133789 83.53046875 114.43188477 83.16552734 C117.79287584 81.94016602 120.12872564 81.38818359 123.76000977 81.38818359 C124.43468539 83.13511154 125.09945132 84.88586884 125.76000977 86.63818359 C126.13125977 87.61271484 126.50250977 88.58724609 126.88500977 89.59130859 C127.76000977 92.38818359 127.76000977 92.38818359 127.76000977 96.38818359 C125.32428917 97.22705416 122.88667759 98.05944889 120.44750977 98.88818359 C119.7572168 99.12666016 119.06692383 99.36513672 118.35571289 99.61083984 C115.37069487 100.62026623 112.93342062 101.38818359 109.76000977 101.38818359 C109.78357544 103.03016724 109.78357544 103.03016724 109.80761719 104.70532227 C109.86203087 108.7773499 109.89640132 112.84934556 109.92480469 116.92163086 C109.9398653 118.68210255 109.96031802 120.44253689 109.98632812 122.20288086 C110.02283205 124.73739862 110.03976331 127.27141911 110.05297852 129.80615234 C110.06846237 130.58967575 110.08394623 131.37319916 110.09989929 132.1804657 C110.10129049 136.72619968 109.83218888 139.91886607 106.76000977 143.38818359 C104.07250977 144.20068359 104.07250977 144.20068359 101.76000977 144.38818359 C101.78357544 145.53033325 101.78357544 145.53033325 101.80761719 146.69555664 C101.87009429 150.15552299 101.90904149 153.61537049 101.94750977 157.07568359 C101.97264648 158.27386719 101.9977832 159.47205078 102.02368164 160.70654297 C102.03818359 162.44194336 102.03818359 162.44194336 102.05297852 164.21240234 C102.07654419 165.80701294 102.07654419 165.80701294 102.10058594 167.43383789 C101.70858653 170.83425713 100.83437903 172.68334199 98.76000977 175.38818359 C94.99032167 176.64474629 91.44283234 176.56993721 87.51391602 176.59130859 C86.70639389 176.59700867 85.89887177 176.60270874 85.06687927 176.60858154 C83.35970365 176.61802194 81.65250987 176.62456171 79.9453125 176.62841797 C77.33569601 176.6381345 74.7268637 176.6691705 72.11743164 176.70068359 C70.4579311 176.70721292 68.79842494 176.71246367 67.13891602 176.71630859 C66.35964249 176.7286554 65.58036896 176.7410022 64.77748108 176.75372314 C61.53723812 176.74041647 59.17617182 176.61358234 56.29882812 175.05517578 C49.46303512 167.65000449 53.76000977 149.89018155 53.76000977 144.38818359 C32.64000977 144.38818359 11.52000977 144.38818359 -10.23999023 144.38818359 C-10.23999023 152.96818359 -10.23999023 161.54818359 -10.23999023 170.38818359 C-13.23999023 175.38818359 -13.23999023 175.38818359 -16.23999023 176.38818359 C-18.99709981 176.50911749 -21.72816386 176.57630686 -24.48608398 176.59130859 C-25.29360611 176.59700867 -26.10112823 176.60270874 -26.93312073 176.60858154 C-28.64029635 176.61802194 -30.34749013 176.62456171 -32.0546875 176.62841797 C-34.66430399 176.6381345 -37.2731363 176.6691705 -39.88256836 176.70068359 C-41.5420689 176.70721292 -43.20157506 176.71246367 -44.86108398 176.71630859 C-46.02999428 176.7348288 -46.02999428 176.7348288 -47.22251892 176.75372314 C-50.46276188 176.74041647 -52.82382818 176.61358234 -55.70117188 175.05517578 C-58.65864884 171.8513597 -58.35784833 168.5490929 -58.33764648 164.40771484 C-58.33442383 163.24433594 -58.33120117 162.08095703 -58.32788086 160.88232422 C-58.31950195 159.66738281 -58.31112305 158.45244141 -58.30249023 157.20068359 C-58.29797852 155.97414062 -58.2934668 154.74759766 -58.28881836 153.48388672 C-58.27702089 150.45193691 -58.26055944 147.42008453 -58.23999023 144.38818359 C-59.00311523 144.32630859 -59.76624023 144.26443359 -60.55249023 144.20068359 C-63.23999023 143.38818359 -63.23999023 143.38818359 -65.02050781 141.34838867 C-66.58196127 137.55807373 -66.71784104 134.0618069 -66.75170898 130.02490234 C-66.76966019 129.23291946 -66.78761139 128.44093658 -66.80610657 127.62495422 C-66.86005862 125.10858398 -66.89405586 122.59240175 -66.92749023 120.07568359 C-66.96067675 118.36406898 -66.99516764 116.65247912 -67.03100586 114.94091797 C-67.1182204 110.75664841 -67.17841432 106.57322245 -67.23999023 102.38818359 C-72.84999023 100.40818359 -78.45999023 98.42818359 -84.23999023 96.38818359 C-83.39392826 90.46574976 -82.39983065 86.74083158 -80.23999023 81.38818359 C-75.92067636 82.00430194 -71.98790248 83.03056937 -67.86499023 84.45068359 C-66.80538086 84.81291016 -65.74577148 85.17513672 -64.65405273 85.54833984 C-63.85741211 85.82548828 -63.06077148 86.10263672 -62.23999023 86.38818359 C-61.87518555 85.22416016 -61.51038086 84.06013672 -61.13452148 82.86083984 C-58.98452328 76.4234404 -56.39550589 70.16647923 -53.7890625 63.90405273 C-52.92954303 61.83063556 -52.08579522 59.75122038 -51.24194336 57.67138672 C-43.9041144 39.85448876 -43.9041144 39.85448876 -36.05249023 35.45068359 C-35.39893555 35.07041016 -34.74538086 34.69013672 -34.07202148 34.29833984 C-30.11554041 32.3327533 -26.91241649 32.28251601 -22.55249023 32.32568359 C-20.78325195 32.33921875 -20.78325195 32.33921875 -18.97827148 32.35302734 C-18.07463867 32.36462891 -17.17100586 32.37623047 -16.23999023 32.38818359 C-15.98604492 31.21642578 -15.73209961 30.04466797 -15.47045898 28.83740234 C-14.41882952 24.01520886 -13.33416005 19.20087764 -12.23999023 14.38818359 C-11.97831055 13.22029297 -11.71663086 12.05240234 -11.44702148 10.84912109 C-11.21370117 9.89263672 -10.98038086 8.93615234 -10.73999023 7.95068359 C-10.44608398 6.71511719 -10.44608398 6.71511719 -10.14624023 5.45458984 C-8.13159657 0.86085493 -4.70675796 0.01224312 0 0 Z " fill="#010101" transform="translate(234.239990234375,87.61181640625)"/>
<path d="M0 0 C0.78947021 0.00054382 1.57894043 0.00108765 2.39233398 0.00164795 C15.79752181 0.04394094 28.58181608 1.08730699 41.625 4.375 C42.48432129 4.58930664 43.34364258 4.80361328 44.22900391 5.02441406 C71.90919405 12.15864427 97.56410192 25.88444791 118.48828125 45.390625 C120.38064419 47.14806627 122.31755249 48.79926496 124.3125 50.4375 C128.17470602 53.74412186 131.40213967 57.45124578 134.625 61.375 C135.0379834 61.87563965 135.4509668 62.3762793 135.87646484 62.89208984 C142.51840323 70.99032053 148.43838905 79.24945191 153.625 88.375 C153.98835449 89.00744629 154.35170898 89.63989258 154.72607422 90.29150391 C164.614668 107.64398296 170.79799579 125.7921763 174.625 145.375 C174.81191406 146.30965088 174.99882812 147.24430176 175.19140625 148.20727539 C176.96041863 158.13822659 177.02275413 168.00770329 177 178.0625 C176.99918427 179.41852325 176.99918427 179.41852325 176.99835205 180.80194092 C176.95646369 195.98798049 175.9308543 210.5049887 172.625 225.375 C172.31151611 226.80537598 172.31151611 226.80537598 171.99169922 228.26464844 C166.8225256 251.13291763 158.82851627 273.28834948 148.625 294.375 C148.2861377 295.0777002 147.94727539 295.78040039 147.59814453 296.50439453 C145.65711121 300.50487463 143.66262729 304.47489902 141.62548828 308.42724609 C140.62275018 310.37937995 139.63748293 312.33971887 138.65234375 314.30078125 C128.43200244 334.38157557 115.8117704 353.14234637 102.625 371.375 C102.02236328 372.20966797 101.41972656 373.04433594 100.79882812 373.90429688 C94.00063609 383.29227636 87.0783687 392.49589222 79.625 401.375 C78.18601857 403.14462973 76.74856286 404.91550101 75.3125 406.6875 C66.5438027 417.38288338 57.48005065 427.72617734 47.9921875 437.7890625 C45.01489488 440.94771305 42.09742105 444.15422685 39.1875 447.375 C30.70021123 456.65326391 21.92157825 465.95921875 12.24609375 474.01171875 C10.6004455 475.35712863 10.6004455 475.35712863 9.09765625 476.89453125 C6.34191797 479.54793443 4.53854032 480.39173413 0.75 481.125 C-4.77138148 480.68991928 -7.62139713 477.11659134 -11.375 473.375 C-12.48665208 472.34048435 -13.6029283 471.31092537 -14.72265625 470.28515625 C-25.352756 460.5330795 -36.08802117 450.64748004 -45.4140625 439.6171875 C-47.67721051 437.02944456 -50.02816806 434.53634099 -52.38745117 432.03637695 C-57.87661737 426.21911274 -63.18656781 420.35287447 -68.1796875 414.09765625 C-70.1750892 411.62293208 -72.22547623 409.20574099 -74.30151367 406.79858398 C-81.05715536 398.9457604 -87.25326308 390.72701796 -93.375 382.375 C-93.89320313 381.67246094 -94.41140625 380.96992188 -94.9453125 380.24609375 C-108.43470052 361.93906715 -121.021493 343.08311694 -132.375 323.375 C-132.86709961 322.52389648 -133.35919922 321.67279297 -133.86621094 320.79589844 C-150.94985106 291.01901366 -164.01599985 258.95292052 -171.375 225.375 C-171.58527832 224.42915039 -171.79555664 223.48330078 -172.01220703 222.50878906 C-175.1238941 207.8397591 -175.76138866 193.37791975 -175.8125 178.4375 C-175.81876404 177.58198547 -175.82502808 176.72647095 -175.83148193 175.84503174 C-175.90806958 159.31916297 -174.04069392 143.30130326 -169.25 127.4375 C-168.952146 126.43734863 -168.65429199 125.43719727 -168.34741211 124.40673828 C-160.70511107 99.68429582 -147.74986342 76.84752991 -129.91796875 58.09375 C-128.11903076 56.17046145 -126.42993599 54.26183796 -124.765625 52.23046875 C-121.61978879 48.47294216 -118.14928847 45.4846339 -114.375 42.375 C-113.87291016 41.96056641 -113.37082031 41.54613281 -112.85351562 41.11914062 C-104.75684906 34.47891586 -96.49848663 28.56043929 -87.375 23.375 C-86.74255371 23.01164551 -86.11010742 22.64829102 -85.45849609 22.27392578 C-59.23740995 7.33141132 -30.13716622 -0.07839147 0 0 Z M-106.15234375 59.30859375 C-108.15038666 61.1661767 -110.20627197 62.89321251 -112.3125 64.625 C-136.66555434 85.98904767 -151.77832712 119.03668183 -157.375 150.375 C-157.71144531 152.05722656 -157.71144531 152.05722656 -158.0546875 153.7734375 C-170.29025512 225.67834856 -131.08213414 300.14243252 -91.06494141 356.99707031 C-83.18708887 368.08205784 -75.1197969 378.95742945 -66.375 389.375 C-64.93601857 391.14462973 -63.49856286 392.91550101 -62.0625 394.6875 C-53.76124204 404.81907004 -45.20858061 414.68838755 -36.26953125 424.26171875 C-34.47404016 426.18465844 -32.70535785 428.12228181 -30.94921875 430.08203125 C-21.20817765 440.9416608 -10.7314507 451.10762821 -0.375 461.375 C3.89232045 459.72300863 6.74526364 456.52491497 9.89453125 453.3359375 C10.79337288 452.43640854 10.79337288 452.43640854 11.71037292 451.51870728 C12.97766537 450.24839709 14.24252983 448.9756607 15.50512695 447.70068359 C17.41509818 445.7726141 19.33279036 443.85250968 21.25195312 441.93359375 C26.72958005 436.4399114 32.16894151 430.95642649 37.19897461 425.04394531 C39.54304072 422.3005733 42.03206641 419.69396635 44.5 417.0625 C48.90403724 412.323477 53.10901788 407.48103378 57.16015625 402.43359375 C59.04474341 400.09503314 60.94720516 397.77854639 62.87109375 395.47265625 C85.54885931 368.26185593 105.21387581 339.20953929 122.625 308.375 C123.12032227 307.49859863 123.61564453 306.62219727 124.12597656 305.71923828 C152.86792048 254.30353557 170.97546587 192.13852838 155 133.8125 C145.69680359 102.07530998 126.07555236 72.40403097 99.625 52.375 C98.75359375 51.69953125 97.8821875 51.0240625 96.984375 50.328125 C89.90064644 44.9842596 82.40113198 40.6036588 74.625 36.375 C73.28115234 35.60542969 73.28115234 35.60542969 71.91015625 34.8203125 C15.27379838 4.04872306 -59.65122725 15.83194011 -106.15234375 59.30859375 Z " fill="#010000" transform="translate(255.375,15.625)"/>
<path d="M0 0 C1.2375 0.02964844 2.475 0.05929688 3.75 0.08984375 C41.61833969 1.88683672 75.45708293 21.99191282 101 49 C127.85144779 80.21050494 138.42405028 118.67272499 135.7578125 159.2890625 C131.95272036 197.41763879 111.61406072 232.15724016 82.640625 256.67529297 C68.19237524 268.34139464 51.43449855 275.97372768 34 282 C33.1440625 282.30679687 32.288125 282.61359375 31.40625 282.9296875 C9.24519485 290.29140788 -16.43733484 290.46901957 -39 285 C-40.82724609 284.59974609 -40.82724609 284.59974609 -42.69140625 284.19140625 C-68.07244704 278.13548454 -90.13002129 264.80776137 -109 247 C-109.73734375 246.32710937 -110.4746875 245.65421875 -111.234375 244.9609375 C-132.80835335 224.53451119 -147.50012145 193.38270131 -151 164 C-151.11085938 163.13117188 -151.22171875 162.26234375 -151.3359375 161.3671875 C-153.04770661 145.128513 -152.71617765 128.90777861 -149 113 C-148.56494141 111.09154297 -148.56494141 111.09154297 -148.12109375 109.14453125 C-141.66906934 83.09347034 -128.50230057 61.20527552 -110 42 C-109.35804688 41.29488281 -108.71609375 40.58976562 -108.0546875 39.86328125 C-91.03724481 21.70397552 -66.66378737 10.24973976 -43 4 C-41.85789062 3.65710937 -40.71578125 3.31421875 -39.5390625 2.9609375 C-26.66339922 -0.53510352 -13.23046448 -0.35841915 0 0 Z M-97 52 C-97.78375 52.763125 -98.5675 53.52625 -99.375 54.3125 C-100.24125 55.199375 -101.1075 56.08625 -102 57 C-102.96873047 57.97453125 -102.96873047 57.97453125 -103.95703125 58.96875 C-119.43462146 75.23241747 -129.08355952 96.28878851 -134 118 C-134.24621094 119.08410156 -134.49242187 120.16820312 -134.74609375 121.28515625 C-140.78321608 153.55253423 -132.70062708 188.59838084 -114.578125 215.67578125 C-110.23165909 221.99188206 -105.69042226 227.82823601 -100 233 C-99.236875 233.78375 -98.47375 234.5675 -97.6875 235.375 C-96.800625 236.24125 -95.91375 237.1075 -95 238 C-94.02546875 238.96873047 -94.02546875 238.96873047 -93.03125 239.95703125 C-66.92433361 264.80211334 -32.05364329 272.98775225 3.00683594 272.140625 C9.53429165 271.83395171 15.67727616 270.64447526 22 269 C23.63195312 268.58234375 23.63195312 268.58234375 25.296875 268.15625 C58.95585363 258.6332219 87.21273835 236.33998671 104.53759766 206.03051758 C121.1105474 175.86493411 124.5664796 139.86566178 115.26171875 106.83203125 C108.05633182 83.96481228 93.96403339 60.87107654 75 46 C74.11828125 45.29359375 73.2365625 44.5871875 72.328125 43.859375 C22.72344496 5.27795719 -52.24177199 5.51692845 -97 52 Z " fill="#030201" transform="translate(264,48)"/>
<path d="M0 0 C0.93864899 -0.00700928 1.87729797 -0.01401855 2.84439087 -0.02124023 C5.94807497 -0.03884916 9.05084759 -0.02718601 12.15454102 -0.01367188 C14.31161168 -0.01636618 16.46868117 -0.02024808 18.62574768 -0.02526855 C23.14758868 -0.03116773 27.66911369 -0.02258776 32.19091797 -0.00390625 C37.98615174 0.0188696 43.780644 0.00577113 49.57585049 -0.01819611 C54.03084392 -0.03265424 58.48566174 -0.02804772 62.94066048 -0.01768494 C65.07729238 -0.015017 67.21394024 -0.01828975 69.35055351 -0.02760315 C72.33829809 -0.03776718 75.3248446 -0.02226848 78.3125 0 C79.19526108 -0.00809692 80.07802216 -0.01619385 80.98753357 -0.02453613 C85.00757787 0.03094555 87.18714155 0.19292951 90.68743896 2.32173157 C92.50853624 4.28820998 93.64165309 5.72349605 94.66552734 8.16870117 C94.96546097 8.86589767 95.26539459 9.56309418 95.57441711 10.28141785 C96.02786751 11.39411797 96.02786751 11.39411797 96.49047852 12.52929688 C96.97927742 13.68254204 96.97927742 13.68254204 97.47795105 14.85908508 C98.50963042 17.30245128 99.52147921 19.75349226 100.53344727 22.20507812 C101.2320744 23.86510686 101.93193141 25.52461856 102.63305664 27.18359375 C107.72094727 39.27832231 107.72094727 39.27832231 107.72094727 40.51757812 C62.84094727 40.51757812 17.96094727 40.51757812 -28.27905273 40.51757812 C-12.02799284 -0.11007161 -12.02799284 -0.11007161 0 0 Z " fill="#EDEDED" transform="translate(216.279052734375,135.482421875)"/>
<path d="M0 0 C26.73 0 53.46 0 81 0 C79.35 1.65 77.7 3.3 76 5 C73.51613941 8.72579089 73.6195788 10.58711402 74 15 C75.8275239 18.92917639 77.83349625 20.83349625 81 24 C54.27 24 27.54 24 0 24 C1.65 22.68 3.3 21.36 5 20 C7.28873683 17.07988749 7.96294461 15.25475578 8.5 11.5625 C7.83241826 6.80598011 6.36942471 5.36942471 3 2 C2.01 1.34 1.02 0.68 0 0 Z " fill="#FD9700" transform="translate(215,192)"/>
<path d="M0 0 C11.88 0 23.76 0 36 0 C37.32 5.28 38.64 10.56 40 16 C25.48 16 10.96 16 -4 16 C-2.68 10.72 -1.36 5.44 0 0 Z " fill="#FB9500" transform="translate(238,104)"/>
<path d="M0 0 C4.08998175 1.80720124 6.66247347 4.19069751 9 8 C9.62819266 13.0255413 9.03320735 15.95572354 6 20 C3.24705395 23.21177039 0.96958591 23.86947882 -3.25 24.4375 C-8.1843364 23.86182742 -10.79803186 21.71753928 -14 18 C-15.23534045 14.29397865 -15.45528745 11.90246386 -15 8 C-10.91704021 1.64314568 -7.65816344 -0.51919752 0 0 Z " fill="#050300" transform="translate(303,192)"/>
<path d="M0 0 C4.08998175 1.80720124 6.66247347 4.19069751 9 8 C9.62819266 13.0255413 9.03320735 15.95572354 6 20 C3.24705395 23.21177039 0.96958591 23.86947882 -3.25 24.4375 C-8.1843364 23.86182742 -10.79803186 21.71753928 -14 18 C-15.23534045 14.29397865 -15.45528745 11.90246386 -15 8 C-10.91704021 1.64314568 -7.65816344 -0.51919752 0 0 Z " fill="#050300" transform="translate(215,192)"/>
<path d="M0 0 C8.25 0 16.5 0 25 0 C25 7.92 25 15.84 25 24 C16.75 24 8.5 24 0 24 C1.65 22.68 3.3 21.36 5 20 C7.28873683 17.07988749 7.96294461 15.25475578 8.5 11.5625 C7.83241826 6.80598011 6.36942471 5.36942471 3 2 C2.01 1.34 1.02 0.68 0 0 Z " fill="#FC9600" transform="translate(303,192)"/>
<path d="M0 0 C7.92 0 15.84 0 24 0 C22.35 1.65 20.7 3.3 19 5 C16.51613941 8.72579089 16.6195788 10.58711402 17 15 C18.8275239 18.92917639 20.83349625 20.83349625 24 24 C16.08 24 8.16 24 0 24 C0 16.08 0 8.16 0 0 Z " fill="#FD9600" transform="translate(184,192)"/>
<path d="M0 0 C5.28 0 10.56 0 16 0 C16 5.28 16 10.56 16 16 C10.72 16 5.44 16 0 16 C0 10.72 0 5.44 0 0 Z " fill="#FF9800" transform="translate(304,232)"/>
<path d="M0 0 C5.28 0 10.56 0 16 0 C16 5.28 16 10.56 16 16 C10.72 16 5.44 16 0 16 C0 10.72 0 5.44 0 0 Z " fill="#FF9800" transform="translate(192,232)"/>
</svg>
